<?xml version="1.0" standalone="no"?>
<!DOCTYPE svg PUBLIC "-//W3C//DTD SVG 20010904//EN"
 "http://www.w3.org/TR/2001/REC-SVG-20010904/DTD/svg10.dtd">
<svg version="1.0" xmlns="http://www.w3.org/2000/svg"
 width="260.000000pt" height="260.000000pt" viewBox="0 0 260.000000 260.000000"
 preserveAspectRatio="xMidYMid meet">
<metadata>
Created by potrace 1.11, written by Peter Selinger 2001-2013
</metadata>
<g transform="translate(0.000000,260.000000) scale(0.100000,-0.100000)"
fill="#000000" stroke="none">
<path d="M303 2574 c-83 -18 -151 -54 -195 -102 -45 -50 -57 -71 -79 -146 -17
-55 -18 -119 -19 -857 0 -560 3 -812 11 -850 22 -102 79 -189 205 -311 94 -92
246 -211 319 -250 l60 -33 816 -2 c721 -3 822 -1 870 13 126 37 214 115 260
231 l23 58 2 825 c1 678 -1 831 -12 863 -17 49 -82 141 -191 269 -141 166
-226 238 -333 284 -43 18 -82 19 -860 20 -644 1 -828 -1 -877 -12z m1690 -100
c63 -19 128 -69 154 -118 39 -74 41 -109 40 -915 0 -778 0 -781 -22 -846 -26
-79 -75 -134 -149 -167 l-51 -23 -815 0 c-765 0 -818 1 -859 18 -25 10 -58 28
-74 39 -36 26 -84 99 -99 153 -14 49 -18 1572 -5 1649 17 95 65 161 147 198
64 30 165 33 975 31 631 -1 706 -3 758 -19z"/>
<path d="M1045 2293 c-135 -14 -314 -90 -407 -173 -119 -106 -179 -237 -179
-390 0 -47 2 -96 5 -109 37 -169 124 -283 270 -355 120 -59 229 -80 401 -79
213 2 393 63 509 172 l38 36 -6 -80 c-21 -263 -130 -429 -323 -494 -77 -25
-118 -31 -228 -32 -182 -1 -296 46 -435 177 -47 45 -95 84 -107 88 -49 16
-113 -39 -113 -96 0 -76 123 -205 255 -268 131 -63 225 -83 400 -84 257 -2
398 49 547 195 65 63 157 244 173 340 3 19 8 42 11 52 25 81 36 352 20 505 -9
94 -49 231 -88 304 -69 130 -213 232 -378 267 -92 20 -282 32 -365 24z m216
-187 c140 -15 244 -61 314 -138 56 -63 79 -130 79 -233 0 -67 -4 -88 -27 -133
-74 -143 -241 -227 -467 -235 -226 -8 -396 59 -464 182 -34 64 -39 88 -39 178
2 130 76 251 197 318 114 63 225 79 407 61z"/>
</g>
</svg>
